<?xml version="1.0" encoding="utf-8"?>
<!-- Generator: Adobe Illustrator 16.0.0, SVG Export Plug-In . SVG Version: 6.00 Build 0)  -->
<!DOCTYPE svg PUBLIC "-//W3C//DTD SVG 1.1 Tiny//EN" "http://www.w3.org/Graphics/SVG/1.1/DTD/svg11-tiny.dtd">
<svg version="1.1" baseProfile="tiny" id="Layer_1" xmlns="http://www.w3.org/2000/svg" xmlns:xlink="http://www.w3.org/1999/xlink"
	 x="0px" y="0px" width="263px" height="176px" viewBox="0 0 263 176" xml:space="preserve">
<g>
	<path fill="none" stroke="#000000" stroke-width="3" stroke-miterlimit="10" d="M256.444,155.492c0,6.627-5.372,12-12,12h-49.959
		c-6.627,0-12-5.373-12-12v-49.958c0-6.627,5.373-12,12-12h49.959c6.628,0,12,5.373,12,12V155.492z"/>
	<polygon points="217.643,115.482 243.65,130.512 217.643,145.542 	"/>
</g>
<g>
	<path fill="none" stroke="#000000" stroke-width="3" stroke-miterlimit="10" d="M82.944,155.492c0,6.627-5.372,12-12,12H20.985
		c-6.627,0-12-5.373-12-12v-49.958c0-6.627,5.373-12,12-12h49.959c6.628,0,12,5.373,12,12V155.492z"/>
	<polygon points="47.798,145.542 21.79,130.512 47.798,115.482 	"/>
</g>
<g>
	<path fill="none" stroke="#000000" stroke-width="3" stroke-miterlimit="10" d="M169.484,69.169c0,6.627-5.373,12-12,12h-49.959
		c-6.627,0-12-5.373-12-12V19.21c0-6.627,5.373-12,12-12h49.959c6.627,0,12,5.373,12,12V69.169z"/>
	<polygon points="117.475,46.232 132.504,20.224 147.535,46.232 	"/>
</g>
<g>
	<path fill="none" stroke="#000000" stroke-width="3" stroke-miterlimit="10" d="M169.694,155.626c0,6.627-5.373,12-12,12h-49.959
		c-6.627,0-12-5.373-12-12v-49.958c0-6.627,5.373-12,12-12h49.959c6.627,0,12,5.373,12,12V155.626z"/>
	<polygon points="147.745,128.802 132.714,154.81 117.685,128.802 	"/>
</g>
</svg>
